PathFileType	4	(X/Y/Z)	SUBJ63_0_static_RCNL2025.trc
DataRate	CameraRate	NumFrames	NumMarkers	Units	OrigDataRate	OrigDataStartFrame	OrigNumFrames
100	100	13	25	mm	100	102	116
Frame#	Time	R_Shoulder			L_Shoulder			C7			J_Notch			R_Elbow			L_Elbow			R_Wrist			L_Wrist			R_Asis			L_Asis			Sacral			Thoracic			Sternum			R_Thigh_Lateral			R_Knee_Lateral			R_Shank_Lateral			R_Ankle_Lateral			R_Heel			R_Toe			L_Thigh_Lateral			L_Knee_Lateral			L_Shank_Lateral			L_Ankle_Lateral			L_Heel			L_Toe		
		X1	Y1	Z1	X2	Y2	Z2	X3	Y3	Z3	X4	Y4	Z4	X5	Y5	Z5	X6	Y6	Z6	X7	Y7	Z7	X8	Y8	Z8	X9	Y9	Z9	X10	Y10	Z10	X11	Y11	Z11	X12	Y12	Z12	X13	Y13	Z13	X14	Y14	Z14	X15	Y15	Z15	X16	Y16	Z16	X17	Y17	Z17	X18	Y18	Z18	X19	Y19	Z19	X20	Y20	Z20	X21	Y21	Z21	X22	Y22	Z22	X23	Y23	Z23	X24	Y24	Z24	X25	Y25	Z25
102	1.01000000	-336.731842	1298.316284	-43.458477	-331.562012	1301.353638	-384.331909	-420.454956	1362.514282	-218.305939	-297.422211	1262.402832	-216.645782	-360.980408	1003.457825	33.874249	-349.656433	1002.569885	-474.134644	-289.969330	787.912537	65.370956	-281.098083	790.021301	-499.617004	-256.601196	847.947998	-88.805328	-242.321075	844.196350	-340.715698	-475.383636	866.085144	-230.230133	-487.564575	1170.516846	-218.005737	-231.342896	1090.760010	-215.296600	-357.748444	508.769989	-42.893810	-367.823792	452.392578	-91.708992	-400.133301	272.342896	-46.962292	-411.162476	61.281845	-127.513359	-453.447021	58.582935	-178.957718	-293.893311	47.112217	-130.797195	-340.927551	474.018890	-424.725189	-348.631744	448.400909	-356.544891	-367.645325	258.604065	-396.551208	-389.090027	60.677040	-323.084900	-441.241913	53.305084	-275.979645	-269.667999	44.126366	-305.282440
103	1.02000000	-336.696320	1298.315552	-43.484520	-331.647980	1301.329590	-384.360352	-420.521332	1362.449707	-218.348602	-297.405914	1262.458618	-216.650650	-361.067108	1003.419373	33.828194	-349.651917	1002.566650	-474.111267	-289.891251	787.848846	65.363642	-281.073547	790.021851	-499.589844	-256.600983	847.944275	-88.813545	-242.393616	844.191895	-340.651703	-475.380035	866.084106	-230.234802	-487.660553	1170.432617	-217.923798	-231.453308	1090.756592	-215.314941	-357.807709	508.737274	-42.881401	-367.779694	452.340149	-91.727173	-400.192749	272.277771	-46.919407	-411.163239	61.274872	-127.521675	-453.436584	58.575996	-178.949463	-294.028717	47.064926	-130.765427	-341.026062	473.987366	-424.717896	-348.640076	448.403839	-356.508698	-367.664795	258.555847	-396.497223	-389.040741	60.630043	-323.011810	-441.243195	53.222862	-275.888306	-269.669464	44.123486	-305.273010
104	1.03000000	-336.671997	1298.286255	-43.523613	-331.684113	1301.338989	-384.317719	-420.525360	1362.447021	-218.350784	-297.405518	1262.500977	-216.553070	-361.126404	1003.436523	33.807102	-349.572144	1002.578979	-474.173828	-289.935349	787.888550	65.410748	-281.107422	790.046722	-499.637405	-256.634308	847.916870	-88.753593	-242.420807	844.181091	-340.616821	-475.380463	866.084473	-230.234238	-487.654907	1170.461548	-217.932663	-231.223495	1090.983154	-215.489731	-357.798523	508.697937	-42.900925	-367.832855	452.374603	-91.719978	-399.992584	272.113281	-47.193130	-411.205536	61.253124	-127.487846	-453.431000	58.571323	-178.982941	-294.066315	47.069126	-130.749100	-340.935974	474.029663	-424.948486	-348.628784	448.387939	-356.540131	-367.642517	258.573181	-396.507233	-389.062897	60.654709	-323.091064	-441.383331	53.295494	-275.878784	-269.598511	44.172482	-305.300842
105	1.04000000	-336.742462	1298.330078	-43.502693	-331.684479	1301.339722	-384.314789	-420.523590	1362.448120	-218.349670	-297.396332	1262.480469	-216.634674	-361.215973	1003.505615	33.746586	-349.507416	1002.561523	-474.115570	-289.866928	787.923950	65.406803	-281.104767	790.066772	-499.658676	-256.682556	847.820618	-88.827675	-242.369446	844.105835	-340.784607	-475.380768	866.084656	-230.233932	-487.563110	1170.376587	-217.997452	-231.360672	1090.860229	-215.350357	-357.778595	508.665802	-42.886917	-367.902740	452.383728	-91.669914	-400.204651	272.304901	-46.925201	-411.145966	61.257961	-127.537857	-453.468292	58.636700	-178.944382	-293.999420	47.072033	-130.705582	-341.014343	473.989746	-424.773407	-348.635193	448.371826	-356.530151	-367.646545	258.576233	-396.486053	-389.133606	60.636734	-323.049103	-441.282867	53.243813	-275.968567	-269.660522	44.125065	-305.260834
106	1.05000000	-336.719147	1298.378662	-43.521442	-331.666107	1301.398438	-384.356201	-420.613953	1362.419434	-218.283707	-297.366089	1262.545044	-216.686325	-361.285065	1003.506348	33.715225	-349.483673	1002.566833	-474.149994	-289.738419	787.930939	65.380634	-281.067169	790.081543	-499.677338	-256.649780	847.828857	-88.844902	-242.367188	844.053955	-340.782959	-475.359467	866.108887	-230.261536	-487.544769	1170.380981	-217.897125	-231.218674	1090.982910	-215.481735	-357.922791	508.681000	-42.794277	-367.828369	452.376892	-91.722374	-400.137817	272.319946	-46.967186	-411.139740	61.250469	-127.556290	-453.438782	58.579636	-178.979843	-293.935852	47.127728	-130.750839	-340.961060	474.011627	-424.729279	-348.600464	448.459351	-356.587555	-367.649475	258.587921	-396.521667	-389.072113	60.663609	-323.070740	-441.380188	53.075142	-275.734497	-269.614685	44.166817	-305.300903
107	1.06000000	-336.780151	1298.402466	-43.468391	-331.674438	1301.382080	-384.351257	-420.606903	1362.446167	-218.296844	-297.338837	1262.622803	-216.650406	-361.234558	1003.433228	33.762768	-349.493835	1002.545105	-474.164795	-289.758362	787.990479	65.488676	-281.029221	790.069763	-499.720596	-256.648773	847.868225	-88.738991	-242.346909	844.060852	-340.821686	-475.276794	866.150085	-230.222916	-487.588196	1170.410767	-217.963974	-231.373398	1090.881714	-215.345398	-357.947327	508.745789	-42.808243	-367.806244	452.369446	-91.734428	-400.153809	272.337250	-46.988010	-411.216766	61.250168	-127.489906	-453.426025	58.553661	-178.990845	-293.939728	47.132591	-130.742065	-341.075073	474.002472	-424.738861	-348.640533	448.384338	-356.556152	-367.705139	258.560028	-396.510071	-389.058350	60.642563	-323.049683	-441.406982	53.206421	-275.762848	-269.656586	44.103085	-305.268097
108	1.07000000	-336.746033	1298.411133	-43.493290	-331.675690	1301.380615	-384.349762	-420.618622	1362.410156	-218.281906	-297.315948	1262.631226	-216.679794	-361.216339	1003.498840	33.748329	-349.495850	1002.542908	-474.104736	-289.706039	788.000732	65.522675	-281.014999	790.046234	-499.753784	-256.616394	847.941772	-88.807419	-242.388031	844.132141	-340.749634	-475.388489	866.085022	-230.212479	-487.559265	1170.364624	-218.004410	-231.331146	1090.889160	-215.275650	-357.791382	508.691071	-42.893761	-367.861908	452.376282	-91.714020	-400.139465	272.237549	-47.013718	-411.167664	61.262543	-127.549828	-453.503021	58.610744	-178.894409	-293.983856	47.124111	-130.817657	-341.076538	474.003448	-424.729553	-348.639954	448.410797	-356.528442	-367.764008	258.573120	-396.574493	-389.084198	60.645435	-323.083344	-441.391693	53.174786	-275.789642	-269.728058	44.056812	-305.231201
109	1.08000000	-336.788147	1298.427734	-43.412369	-331.673309	1301.336792	-384.336060	-420.602448	1362.444702	-218.299942	-297.333496	1262.617554	-216.601334	-361.128204	1003.608826	33.818939	-349.495331	1002.547668	-474.091156	-289.594696	788.012665	65.491825	-280.980820	790.045227	-499.710556	-256.634338	847.902344	-88.822639	-242.217285	844.124756	-340.810822	-475.316559	866.106689	-230.165527	-487.537445	1170.415649	-217.865250	-231.266708	1090.914551	-215.343628	-358.238037	508.942352	-42.572891	-367.876923	452.398834	-91.679131	-400.171478	272.259491	-46.950150	-411.167145	61.270592	-127.528770	-453.457123	58.593304	-178.953873	-294.041260	47.067764	-130.764343	-341.092865	474.040192	-424.727570	-348.632843	448.403259	-356.524109	-367.832733	258.439514	-396.374725	-389.085754	60.672321	-323.095978	-441.405457	53.094692	-275.687134	-269.610229	44.110371	-305.250122
110	1.09000000	-336.696289	1298.390503	-43.494728	-331.649292	1301.331543	-384.366516	-420.600281	1362.457520	-218.301529	-297.346863	1262.603271	-216.633575	-360.985291	1003.598694	33.827755	-349.494629	1002.554871	-474.087585	-289.578049	788.012329	65.471012	-281.000854	790.065674	-499.761032	-256.670349	847.859741	-88.789696	-242.276352	844.133057	-340.879059	-475.328369	866.083496	-230.135788	-487.586639	1170.453979	-217.860687	-231.282181	1090.908691	-215.301239	-357.917511	508.762115	-42.843239	-367.898468	452.429749	-91.656349	-400.379822	272.305359	-46.792576	-411.188538	61.245205	-127.515083	-453.445862	58.598869	-178.961365	-294.008911	47.097378	-130.713669	-340.987274	473.996277	-424.921356	-348.689758	448.401489	-356.493500	-367.735138	258.567810	-396.429504	-389.090118	60.675903	-323.092377	-441.511047	53.211346	-275.709259	-269.575256	44.178669	-305.203339
111	1.10000000	-336.711243	1298.441772	-43.481869	-331.680817	1301.341675	-384.317291	-420.545776	1362.425049	-218.324875	-297.246552	1262.548828	-216.622375	-360.794495	1003.686035	33.881973	-349.461609	1002.547852	-474.066223	-289.476288	788.093170	65.494045	-281.014786	790.050934	-499.747055	-256.601959	847.786743	-88.866135	-242.231293	844.114624	-340.780701	-475.295715	866.107788	-230.183655	-487.486816	1170.397705	-217.942947	-231.266266	1090.915283	-215.347717	-357.708649	508.659882	-42.985329	-367.830811	452.351105	-91.716827	-400.256927	272.311707	-46.854240	-411.172028	61.313377	-127.516891	-453.434174	58.588062	-178.979843	-294.002777	47.075790	-130.689743	-340.978302	474.028076	-424.788239	-348.707275	448.346863	-356.520721	-367.718719	258.584351	-396.430084	-389.033600	60.672916	-323.052155	-441.205139	53.192127	-275.926300	-269.574188	44.165810	-305.179657
112	1.11000000	-336.620270	1298.476196	-43.552868	-331.644989	1301.367554	-384.388336	-420.521271	1362.446411	-218.350266	-297.209320	1262.586182	-216.630035	-360.649750	1003.715881	33.939140	-349.494202	1002.556702	-474.099762	-289.465942	788.096527	65.476114	-281.027954	790.017639	-499.766663	-256.557526	847.829712	-88.988106	-242.346664	844.062378	-340.782043	-475.291443	866.108337	-230.189407	-487.473816	1170.391235	-217.952011	-231.291672	1090.837891	-215.282532	-357.763031	508.711945	-42.889912	-367.811035	452.338104	-91.728897	-400.125397	272.307007	-46.979053	-411.109833	61.260834	-127.577301	-453.446655	58.599277	-178.960587	-293.958832	47.166039	-130.732269	-341.004364	474.033417	-424.746643	-348.706970	448.373016	-356.517731	-367.722260	258.580627	-396.426819	-389.023285	60.621620	-323.059662	-441.385864	53.206024	-275.713501	-269.519714	44.155861	-305.271729
113	1.12000000	-336.599518	1298.461182	-43.561653	-331.645782	1301.346924	-384.389069	-420.504089	1362.439453	-218.375992	-297.193756	1262.548828	-216.656204	-360.575043	1003.695068	33.969349	-349.461548	1002.535095	-474.064301	-289.469193	788.142212	65.530294	-281.028671	790.041840	-499.724945	-256.602448	847.757385	-88.889099	-242.372635	844.107300	-340.752533	-475.296875	866.135742	-230.190048	-487.445160	1170.466064	-217.981186	-231.332520	1090.756958	-215.272507	-357.740112	508.734741	-42.901310	-367.806030	452.379791	-91.731354	-399.868713	272.119049	-47.248077	-411.125946	61.247276	-127.562546	-453.435944	58.589066	-178.978348	-293.983887	47.128914	-130.806747	-341.059479	473.993622	-424.772583	-348.645508	448.366760	-356.565338	-367.653839	258.617126	-396.468536	-389.085510	60.680233	-323.075958	-441.210785	53.256084	-275.931122	-269.586456	44.138218	-305.351135
114	1.13000000	-336.553894	1298.466553	-43.490681	-331.604767	1301.343506	-384.342957	-420.520752	1362.447144	-218.352310	-297.196411	1262.541626	-216.634216	-360.542145	1003.693054	34.006210	-349.455139	1002.535339	-474.036072	-289.406601	788.128265	65.574766	-281.034195	790.007050	-499.740509	-256.588715	847.801453	-88.886871	-242.361160	844.133301	-340.752838	-475.314697	866.148926	-230.165253	-487.467377	1170.489502	-217.824539	-231.341782	1090.752563	-215.291916	-357.698029	508.731079	-42.963055	-367.824188	452.386566	-91.684090	-400.229492	272.294464	-46.864861	-411.198730	61.250790	-127.498764	-453.517914	58.622757	-179.033203	-293.985992	47.123306	-130.810425	-340.946747	474.033752	-424.994171	-348.699188	448.376617	-356.521210	-367.686676	258.607208	-396.455292	-389.032135	60.654617	-323.050415	-441.467712	53.275074	-275.716980	-269.598328	44.133999	-305.237885
